<?xml version="1.0" standalone="no"?>
<!DOCTYPE svg PUBLIC "-//W3C//DTD SVG 20010904//EN"
 "http://www.w3.org/TR/2001/REC-SVG-20010904/DTD/svg10.dtd">
<svg version="1.0" xmlns="http://www.w3.org/2000/svg"
 width="1808.000000pt" height="590.000000pt" viewBox="0 0 1808.000000 590.000000"
 preserveAspectRatio="xMidYMid meet">

<g transform="translate(0.000000,590.000000) scale(0.100000,-0.100000)"
fill="#000000" stroke="none">
<path d="M2430 4826 c-420 -89 -717 -426 -755 -856 -19 -209 61 -472 192 -634
27 -32 52 -64 57 -71 6 -8 -10 -35 -48 -81 -67 -83 -147 -239 -178 -349 -18
-65 -22 -107 -22 -225 -1 -80 3 -165 7 -189 l8 -43 -28 6 c-81 20 -230 106
-310 179 -49 46 -80 41 -36 -5 64 -68 232 -169 331 -198 49 -15 55 -21 72 -75
21 -68 98 -207 147 -269 27 -32 52 -65 58 -72 8 -11 -67 -91 -315 -340 l-325
-325 50 -45 c172 -155 427 -243 665 -231 322 18 597 184 764 464 149 249 165
591 42 859 -35 75 -97 172 -147 229 l-30 34 56 68 c63 75 153 252 179 348 26
97 36 234 25 337 -5 51 -12 101 -15 110 -5 16 -1 16 48 -1 100 -34 188 -86
285 -168 31 -26 54 -39 58 -33 9 14 -8 33 -77 87 -68 52 -202 124 -275 147
-49 16 -53 20 -69 69 -26 82 -100 216 -161 291 l-55 69 326 326 326 327 -62
52 c-109 92 -238 158 -383 198 -82 22 -319 28 -405 10z m280 -1066 c46 -69 77
-128 101 -198 l19 -54 -28 7 c-60 15 -197 22 -287 14 -107 -10 -227 -45 -330
-96 l-70 -35 245 247 245 246 34 -38 c18 -21 50 -63 71 -93z m80 -271 l49 -10
12 -57 c21 -95 16 -283 -10 -387 -88 -347 -359 -608 -703 -679 -90 -19 -288
-20 -363 -2 -49 11 -50 12 -61 61 -18 75 -17 273 2 363 67 325 307 589 624
687 47 14 114 30 150 35 74 10 228 5 300 -11z m-587 -1291 l-242 -242 -27 24
c-64 60 -170 240 -190 323 l-6 28 43 -8 c24 -4 109 -8 189 -7 167 0 250 18
385 84 44 21 82 39 85 39 3 1 -104 -108 -237 -241z"/>
<path d="M4959 3513 c-30 -5 -26 26 -49 -393 -14 -239 -23 -1015 -13 -1085 l8
-60 77 -3 76 -3 6 83 c6 76 36 1240 36 1384 0 43 -4 63 -14 67 -23 9 -99 15
-127 10z"/>
<path d="M8341 3512 c-15 -11 -25 -98 -40 -382 -15 -274 -23 -833 -14 -1005
l8 -150 45 -3 c24 -2 59 -1 76 2 l31 6 7 253 c3 138 14 478 23 755 10 323 13
506 7 512 -14 14 -126 23 -143 12z"/>
<path d="M12255 3505 c-293 -64 -518 -292 -579 -587 -29 -140 -14 -353 34
-492 80 -233 274 -397 532 -450 132 -27 232 -21 346 21 42 16 43 18 37 49 -3
19 -13 50 -21 70 l-15 36 -47 -8 c-91 -17 -251 -10 -316 14 -146 53 -252 146
-315 274 -153 313 -38 713 247 857 63 32 185 61 257 61 67 0 182 -26 258 -59
l47 -20 30 59 c44 88 43 92 -47 128 -156 61 -310 78 -448 47z"/>
<path d="M15379 3513 c-30 -5 -26 26 -49 -393 -14 -239 -23 -1015 -13 -1085
l8 -60 77 -3 76 -3 6 83 c6 76 36 1240 36 1384 0 43 -4 63 -14 67 -23 9 -99
15 -127 10z"/>
<path d="M5226 3461 c-3 -24 -4 -58 0 -77 7 -38 -2 -35 179 -55 318 -34 519
-127 590 -274 48 -97 31 -230 -39 -311 -107 -125 -370 -172 -655 -118 -41 7
-77 11 -80 8 -3 -3 -7 -36 -9 -74 -5 -83 -10 -79 148 -106 132 -22 336 -15
453 15 267 69 413 256 394 504 -23 309 -329 497 -853 524 l-121 6 -7 -42z"/>
<path d="M8626 3492 c-3 -3 -6 -36 -6 -73 l0 -68 53 -5 c28 -3 86 -8 127 -11
389 -29 647 -195 627 -401 -8 -81 -28 -132 -69 -179 -86 -98 -210 -137 -433
-138 -132 0 -161 3 -245 26 -111 31 -115 29 -126 -60 -8 -66 -10 -63 106 -100
79 -25 98 -27 257 -28 l171 0 85 -150 c107 -188 202 -334 224 -342 19 -7 101
34 117 59 7 12 -20 67 -117 237 -70 122 -127 225 -127 229 0 4 35 23 78 44
168 79 252 215 252 408 0 138 -48 242 -155 338 -115 102 -283 168 -497 196
-126 16 -314 27 -322 18z"/>
<path d="M15646 3461 c-3 -24 -4 -58 0 -77 7 -38 -2 -35 179 -55 318 -34 519
-127 590 -274 48 -97 31 -230 -39 -311 -107 -125 -370 -172 -655 -118 -41 7
-77 11 -80 8 -3 -3 -7 -36 -9 -74 -5 -83 -10 -79 148 -106 132 -22 336 -15
453 15 267 69 413 256 394 504 -23 309 -329 497 -853 524 l-121 6 -7 -42z"/>
<path d="M7193 3349 c-51 -15 -54 -41 -28 -248 9 -68 14 -126 11 -128 -6 -6
-60 16 -191 77 -116 55 -137 59 -169 27 -35 -35 -37 -100 -3 -121 12 -9 84
-27 158 -41 202 -37 194 -23 84 -143 -51 -56 -103 -118 -115 -137 -36 -58 -3
-115 67 -115 40 0 63 22 99 92 55 109 117 209 124 201 5 -4 40 -66 80 -138 39
-71 78 -136 87 -142 28 -22 81 -16 108 12 46 45 34 70 -109 228 -53 59 -96
107 -94 107 35 0 335 73 346 84 20 20 19 68 -1 100 -31 46 -55 43 -195 -22
-71 -34 -141 -64 -156 -68 -32 -8 -32 -1 -11 136 20 127 19 204 -1 224 -8 9
-19 16 -24 16 -5 0 -14 2 -22 4 -7 2 -27 0 -45 -5z"/>
<path d="M10593 3349 c-51 -15 -54 -41 -28 -248 9 -68 14 -126 11 -128 -6 -6
-60 16 -191 77 -116 55 -137 59 -169 27 -35 -35 -37 -100 -3 -121 12 -9 84
-27 158 -41 202 -37 194 -23 84 -143 -51 -56 -103 -118 -115 -137 -36 -58 -3
-115 67 -115 40 0 63 22 99 92 55 109 117 209 124 201 5 -4 40 -66 80 -138 39
-71 78 -136 87 -142 28 -22 81 -16 108 12 46 45 34 70 -109 228 -53 59 -96
107 -94 107 35 0 335 73 346 84 20 20 19 68 -1 100 -31 46 -55 43 -195 -22
-71 -34 -141 -64 -156 -68 -32 -8 -32 -1 -11 136 20 127 19 204 -1 224 -8 9
-19 16 -24 16 -5 0 -14 2 -22 4 -7 2 -27 0 -45 -5z"/>
<path d="M14213 3349 c-51 -15 -54 -41 -28 -248 9 -68 14 -126 11 -128 -6 -6
-60 16 -191 77 -116 55 -137 59 -169 27 -35 -35 -37 -100 -3 -121 12 -9 84
-27 158 -41 202 -37 194 -23 84 -143 -51 -56 -103 -118 -115 -137 -36 -58 -3
-115 67 -115 40 0 63 22 99 92 55 109 117 209 124 201 5 -4 40 -66 80 -138 39
-71 78 -136 87 -142 28 -22 81 -16 108 12 46 45 34 70 -109 228 -53 59 -96
107 -94 107 35 0 335 73 346 84 20 20 19 68 -1 100 -31 46 -55 43 -195 -22
-71 -34 -141 -64 -156 -68 -32 -8 -32 -1 -11 136 20 127 19 204 -1 224 -8 9
-19 16 -24 16 -5 0 -14 2 -22 4 -7 2 -27 0 -45 -5z"/>
<path d="M12859 3261 c-22 -21 -39 -45 -39 -53 0 -8 25 -43 55 -78 69 -82 111
-160 129 -241 36 -160 28 -277 -25 -406 -35 -84 -116 -175 -211 -238 -32 -21
-58 -45 -58 -54 1 -24 34 -94 53 -109 14 -12 27 -9 89 22 159 77 264 197 324
372 25 70 28 94 28 214 1 241 -62 399 -225 558 -29 29 -59 52 -67 52 -8 0 -32
-17 -53 -39z"/>
</g>
</svg>
