<?xml version="1.0" encoding="UTF-8"?>
<svg width="450px" height="150px" viewBox="0 0 450 150" version="1.1" xmlns="http://www.w3.org/2000/svg" xmlns:xlink="http://www.w3.org/1999/xlink">
    <!-- Generator: Sketch 62 (91390) - https://sketch.com -->
    <title>canal_logo</title>
    <desc>Created with Sketch.</desc>
    <g id="canal_logo" stroke="none" stroke-width="1" fill="none" fill-rule="evenodd">
        <path d="M116.326,85.584 C117.558,85.696 118.776,85.647 119.98,85.437 C121.184,85.227 122.339,84.877 123.445,84.387 C124.551,83.897 125.58,83.26 126.532,82.476 C127.484,81.692 128.324,80.782 129.052,79.746 C129.444,79.158 129.801,78.549 130.123,77.919 C130.445,77.289 130.718,76.638 130.942,75.966 L130.942,75.966 L130.942,75.882 L130.018,75.546 C129.626,76.722 129.066,77.842 128.338,78.906 C127.61,79.97 126.749,80.915 125.755,81.741 C124.761,82.567 123.676,83.232 122.5,83.736 C121.324,84.24 120.106,84.52 118.846,84.576 C116.998,84.688 115.29,84.457 113.722,83.883 C112.154,83.309 110.768,82.504 109.564,81.468 C108.36,80.432 107.366,79.207 106.582,77.793 C105.798,76.379 105.259,74.874 104.965,73.278 C104.671,71.682 104.657,70.044 104.923,68.364 C105.189,66.684 105.756,65.06 106.624,63.492 C107.464,61.98 108.591,60.664 110.005,59.544 C111.419,58.424 112.966,57.654 114.646,57.234 C116.718,56.73 118.783,56.723 120.841,57.213 C122.899,57.703 124.712,58.676 126.28,60.132 C127.12,60.944 127.827,61.791 128.401,62.673 C128.975,63.555 129.486,64.528 129.934,65.592 C130.074,65.648 130.228,65.62 130.396,65.508 C130.564,65.396 130.718,65.312 130.858,65.256 C130.858,65.2 130.83,65.116 130.774,65.004 C130.718,64.892 130.69,64.808 130.69,64.752 C130.634,64.612 130.536,64.388 130.396,64.08 C130.256,63.772 130.158,63.576 130.102,63.492 C129.066,61.56 127.666,59.908 125.902,58.536 C124.138,57.164 122.164,56.31 119.98,55.974 C118.132,55.694 116.389,55.75 114.751,56.142 C113.113,56.534 111.622,57.185 110.278,58.095 C108.934,59.005 107.765,60.132 106.771,61.476 C105.777,62.82 105.014,64.276 104.482,65.844 C103.95,67.412 103.67,69.057 103.642,70.779 C103.614,72.501 103.908,74.202 104.524,75.882 C104.86,76.778 105.259,77.646 105.721,78.486 C106.183,79.326 106.736,80.096 107.38,80.796 C108.556,82.112 109.9,83.197 111.412,84.051 C112.924,84.905 114.562,85.416 116.326,85.584 Z M162.848,85.584 L162.848,55.638 L161.84,55.638 L134.414,85.5 L135.758,85.5 L161.924,57.318 L161.924,85.584 L162.848,85.584 Z M170.1,85.5 L170.1,56.898 C170.156,56.898 170.212,56.912 170.268,56.94 C170.324,56.968 170.38,56.982 170.436,56.982 L170.436,56.982 L188.244,65.088 L188.244,85.5 L189.168,85.5 L189.168,55.554 L188.244,55.554 L188.244,63.828 L187.992,63.828 L170.016,55.554 L169.008,55.554 L169.008,85.5 L170.1,85.5 Z M221.83,85.584 L221.83,55.638 L220.822,55.638 L193.396,85.5 L194.74,85.5 L220.906,57.318 L220.906,85.584 L221.83,85.584 Z M241.724,85.5 L241.724,84.492 L229.082,84.492 L229.082,55.638 L227.99,55.638 L227.99,85.5 L241.724,85.5 Z M263.914,85.5 L263.914,56.898 L272.86,56.898 C273.896,56.898 274.946,57.164 276.01,57.696 C277.074,58.228 278.033,58.928 278.887,59.796 C279.741,60.664 280.441,61.63 280.987,62.694 C281.533,63.758 281.834,64.808 281.89,65.844 C281.946,66.74 281.932,67.615 281.848,68.469 C281.764,69.323 281.526,70.142 281.134,70.926 C280.21,72.858 278.957,74.342 277.375,75.378 C275.793,76.414 273.952,77.002 271.852,77.142 L271.852,77.142 L271.852,78.15 C272.608,78.234 273.399,78.171 274.225,77.961 C275.051,77.751 275.8,77.478 276.472,77.142 C277.76,76.554 278.859,75.777 279.769,74.811 C280.679,73.845 281.4,72.781 281.932,71.619 C282.464,70.457 282.793,69.239 282.919,67.965 C283.045,66.691 282.961,65.438 282.667,64.206 C282.373,62.974 281.862,61.805 281.134,60.699 C280.406,59.593 279.44,58.634 278.236,57.822 C277.396,57.234 276.472,56.751 275.464,56.373 C274.456,55.995 273.42,55.806 272.356,55.806 L272.356,55.806 L262.822,55.806 L262.822,85.5 L263.914,85.5 Z M288.89,85.5 L288.89,56.898 L297.92,56.898 C297.976,56.898 298.074,56.912 298.214,56.94 C298.354,56.968 298.452,56.982 298.508,56.982 C298.592,56.982 298.774,57.024 299.054,57.108 C299.334,57.192 299.516,57.234 299.6,57.234 C301.112,57.654 302.463,58.417 303.653,59.523 C304.843,60.629 305.718,61.924 306.278,63.408 C306.894,65.144 307.083,66.817 306.845,68.427 C306.607,70.037 306.04,71.472 305.144,72.732 C304.248,73.992 303.079,75.014 301.637,75.798 C300.195,76.582 298.592,77.03 296.828,77.142 L296.828,77.142 L296.828,78.15 C297.36,78.15 297.885,78.101 298.403,78.003 C298.921,77.905 299.432,77.814 299.936,77.73 L299.936,77.73 L300.02,77.73 L305.942,85.5 L307.202,85.5 L301.112,77.394 L301.112,77.31 C301.952,76.89 302.736,76.421 303.464,75.903 C304.192,75.385 304.85,74.762 305.438,74.034 C306.446,72.83 307.146,71.486 307.538,70.002 C307.93,68.518 308.035,67.041 307.853,65.571 C307.671,64.101 307.209,62.701 306.467,61.371 C305.725,60.041 304.724,58.914 303.464,57.99 C302.624,57.346 301.665,56.821 300.587,56.415 C299.509,56.009 298.424,55.806 297.332,55.806 L297.332,55.806 L287.798,55.806 L287.798,85.5 L288.89,85.5 Z M325.08,85.5 C326.816,85.836 328.51,85.885 330.162,85.647 C331.814,85.409 333.361,84.954 334.803,84.282 C336.245,83.61 337.554,82.728 338.73,81.636 C339.906,80.544 340.879,79.305 341.649,77.919 C342.419,76.533 342.951,75.028 343.245,73.404 C343.539,71.78 343.532,70.072 343.224,68.28 C342.972,66.88 342.566,65.536 342.006,64.248 C341.446,62.96 340.676,61.784 339.696,60.72 C338.212,59.096 336.623,57.864 334.929,57.024 C333.235,56.184 331.527,55.687 329.805,55.533 C328.083,55.379 326.382,55.519 324.702,55.953 C323.022,56.387 321.468,57.073 320.04,58.011 C318.612,58.949 317.359,60.097 316.281,61.455 C315.203,62.813 314.384,64.318 313.824,65.97 C313.264,67.622 313.019,69.393 313.089,71.283 C313.159,73.173 313.642,75.126 314.538,77.142 C314.986,78.178 315.581,79.158 316.323,80.082 C317.065,81.006 317.898,81.832 318.822,82.56 C319.746,83.288 320.74,83.911 321.804,84.429 C322.868,84.947 323.96,85.304 325.08,85.5 Z M329.805,84.681 C328.475,84.835 327.152,84.8 325.836,84.576 C323.988,84.24 322.287,83.589 320.733,82.623 C319.179,81.657 317.87,80.418 316.806,78.906 C315.742,77.478 315.021,75.959 314.643,74.349 C314.265,72.739 314.118,71.08 314.202,69.372 C314.23,68.252 314.447,67.153 314.853,66.075 C315.259,64.997 315.784,63.982 316.428,63.03 C317.072,62.078 317.814,61.203 318.654,60.405 C319.494,59.607 320.376,58.942 321.3,58.41 C322.56,57.654 323.918,57.129 325.374,56.835 C326.83,56.541 328.286,56.478 329.742,56.646 C331.534,56.842 333.172,57.325 334.656,58.095 C336.14,58.865 337.421,59.831 338.499,60.993 C339.577,62.155 340.445,63.464 341.103,64.92 C341.761,66.376 342.153,67.895 342.279,69.477 C342.405,71.059 342.265,72.662 341.859,74.286 C341.453,75.91 340.732,77.45 339.696,78.906 C338.94,79.998 338.044,80.95 337.008,81.762 C335.972,82.574 334.845,83.225 333.627,83.715 C332.409,84.205 331.135,84.527 329.805,84.681 Z M347.032,85.584 C347.452,85.64 347.886,85.633 348.334,85.563 C348.782,85.493 349.216,85.388 349.636,85.248 C350.84,84.884 351.883,84.282 352.765,83.442 C353.647,82.602 354.375,81.622 354.949,80.502 C355.523,79.382 355.95,78.199 356.23,76.953 C356.51,75.707 356.65,74.51 356.65,73.362 L356.65,73.362 L356.65,55.638 L347.62,55.638 L347.62,56.562 L355.558,56.562 L355.558,73.95 C355.558,74.594 355.488,75.238 355.348,75.882 C355.208,76.526 355.054,77.142 354.886,77.73 C354.326,79.69 353.416,81.307 352.156,82.581 C350.896,83.855 349.188,84.52 347.032,84.576 L347.032,84.576 L347.032,85.584 Z M380.45,85.5 L380.45,84.492 L363.398,84.492 L363.398,69.204 L370.664,69.204 L370.664,68.112 L363.398,68.112 L363.398,56.562 L380.954,56.562 L380.954,55.638 L362.39,55.638 L362.39,85.5 L380.45,85.5 Z M396.816,85.584 C398.048,85.696 399.266,85.647 400.47,85.437 C401.674,85.227 402.829,84.877 403.935,84.387 C405.041,83.897 406.07,83.26 407.022,82.476 C407.974,81.692 408.814,80.782 409.542,79.746 C409.934,79.158 410.291,78.549 410.613,77.919 C410.935,77.289 411.208,76.638 411.432,75.966 L411.432,75.966 L411.432,75.882 L410.508,75.546 C410.116,76.722 409.556,77.842 408.828,78.906 C408.1,79.97 407.239,80.915 406.245,81.741 C405.251,82.567 404.166,83.232 402.99,83.736 C401.814,84.24 400.596,84.52 399.336,84.576 C397.488,84.688 395.78,84.457 394.212,83.883 C392.644,83.309 391.258,82.504 390.054,81.468 C388.85,80.432 387.856,79.207 387.072,77.793 C386.288,76.379 385.749,74.874 385.455,73.278 C385.161,71.682 385.147,70.044 385.413,68.364 C385.679,66.684 386.246,65.06 387.114,63.492 C387.954,61.98 389.081,60.664 390.495,59.544 C391.909,58.424 393.456,57.654 395.136,57.234 C397.208,56.73 399.273,56.723 401.331,57.213 C403.389,57.703 405.202,58.676 406.77,60.132 C407.61,60.944 408.317,61.791 408.891,62.673 C409.465,63.555 409.976,64.528 410.424,65.592 C410.564,65.648 410.718,65.62 410.886,65.508 C411.054,65.396 411.208,65.312 411.348,65.256 C411.348,65.2 411.32,65.116 411.264,65.004 C411.208,64.892 411.18,64.808 411.18,64.752 C411.124,64.612 411.026,64.388 410.886,64.08 C410.746,63.772 410.648,63.576 410.592,63.492 C409.556,61.56 408.156,59.908 406.392,58.536 C404.628,57.164 402.654,56.31 400.47,55.974 C398.622,55.694 396.879,55.75 395.241,56.142 C393.603,56.534 392.112,57.185 390.768,58.095 C389.424,59.005 388.255,60.132 387.261,61.476 C386.267,62.82 385.504,64.276 384.972,65.844 C384.44,67.412 384.16,69.057 384.132,70.779 C384.104,72.501 384.398,74.202 385.014,75.882 C385.35,76.778 385.749,77.646 386.211,78.486 C386.673,79.326 387.226,80.096 387.87,80.796 C389.046,82.112 390.39,83.197 391.902,84.051 C393.414,84.905 395.052,85.416 396.816,85.584 Z M424.018,85.5 L424.018,56.646 L432.04,56.646 L432.04,55.638 L415.156,55.638 L415.156,56.646 L423.01,56.646 L423.01,85.5 L424.018,85.5 Z" id="CANALPROJECT" fill="#2A2A2B" fill-rule="nonzero"></path>
        <g transform="translate(15.000000, 15.500000)" stroke="#101820">
            <g id="Group2" transform="translate(43.094867, 43.265092) rotate(-45.000000) translate(-43.094867, -43.265092) translate(7.094867, 19.265092)">
                <path d="M71.1811514,23.9085617 C71.1811514,10.8563243 60.6002225,0.275395173 47.5479848,0.275395173 C34.4957474,0.275395173 23.9148183,10.8563243 23.9148183,23.9085617 L71.1811514,23.9085617 Z" id="Oval" stroke-width="0.5" fill="#101820" fill-rule="nonzero"></path>
                <path d="M47.5479848,47.5417283 C47.5479848,34.4894909 36.9670557,23.9085617 23.9148183,23.9085617 C10.8625808,23.9085617 0.281651698,34.4894909 0.281651698,47.5417283" id="Path" stroke-width="0.75" transform="translate(23.914818, 35.725145) rotate(-180.000000) translate(-23.914818, -35.725145) "></path>
            </g>
            <g id="Group1" transform="translate(42.545360, 76.588849) rotate(135.000000) translate(-42.545360, -76.588849) translate(7.045360, 52.588849)">
                <path d="M70.8994997,23.6331666 C70.8994997,10.5809291 60.3185708,0 47.2663331,0 C34.2140957,0 23.6331666,10.5809291 23.6331666,23.6331666 L70.8994997,23.6331666 Z" id="Oval" stroke-width="0.5" fill="#101820" fill-rule="nonzero"></path>
                <path d="M47.2663331,47.2663331 C47.2663331,34.2140957 36.685404,23.6331666 23.6331666,23.6331666 C10.5809291,23.6331666 3.73163885e-15,34.2140957 3.73163885e-15,47.2663331" id="Path" stroke-width="0.75" transform="translate(23.633167, 35.449750) rotate(-180.000000) translate(-23.633167, -35.449750) "></path>
            </g>
        </g>
    </g>
</svg>