<?xml version="1.0" standalone="no"?>
<!DOCTYPE svg PUBLIC "-//W3C//DTD SVG 20010904//EN"
 "http://www.w3.org/TR/2001/REC-SVG-20010904/DTD/svg10.dtd">
<svg version="1.0" xmlns="http://www.w3.org/2000/svg"
 width="1502.000000pt" height="443.000000pt" viewBox="0 0 1502.000000 443.000000"
 preserveAspectRatio="xMidYMid meet">

<g transform="translate(0.000000,443.000000) scale(0.100000,-0.100000)"
fill="#000000" stroke="none">
<path d="M1921 4095 c-201 -45 -371 -141 -502 -282 -154 -166 -235 -364 -246
-594 -8 -170 20 -308 93 -456 l34 -68 -32 -25 c-149 -117 -227 -211 -299 -355
-55 -112 -87 -224 -97 -345 l-7 -81 -70 49 c-74 52 -199 177 -231 231 -10 17
-22 31 -26 31 -60 0 136 -222 270 -304 l60 -38 7 -66 c10 -91 48 -218 92 -308
22 -45 33 -78 27 -83 -5 -4 -178 -113 -384 -241 -206 -128 -377 -235 -379
-237 -19 -15 113 -170 210 -247 375 -297 908 -267 1245 68 172 172 261 373
271 614 8 184 -19 318 -96 471 -18 34 -31 64 -29 65 95 63 209 174 265 256 88
129 150 306 160 453 3 48 8 87 10 87 2 0 30 -18 62 -39 82 -56 160 -129 211
-200 25 -34 50 -61 57 -61 21 0 16 11 -38 82 -59 79 -137 152 -230 214 l-66
44 -7 65 c-9 88 -49 221 -92 307 -35 69 -35 72 -18 85 11 8 186 118 391 245
l371 232 -38 55 c-43 64 -163 183 -230 228 -74 50 -184 101 -277 129 -73 22
-112 27 -233 30 -102 3 -164 -1 -209 -11z m238 -1049 c37 -89 59 -171 68 -249
l6 -57 -55 25 c-112 51 -201 68 -363 69 -114 0 -166 -4 -214 -17 -35 -9 -65
-16 -67 -14 -2 1 124 82 279 179 324 203 290 197 346 64z m-119 -264 c41 -11
101 -31 133 -45 l57 -26 0 -70 c0 -132 -49 -295 -129 -430 -50 -85 -164 -208
-247 -267 -253 -180 -595 -220 -881 -102 l-73 30 0 64 c0 133 50 301 131 436
23 39 78 109 123 156 132 137 284 224 466 263 112 25 310 20 420 -9z m-990
-998 c161 -48 352 -52 509 -10 30 8 50 11 45 7 -20 -18 -561 -351 -571 -351
-28 0 -114 237 -128 355 l-7 56 38 -17 c22 -9 73 -27 114 -40z"/>
<path d="M3879 2883 c-30 -5 -26 26 -49 -393 -14 -239 -23 -1015 -13 -1085 l8
-60 77 -3 76 -3 6 83 c6 76 36 1240 36 1384 0 43 -4 63 -14 67 -23 9 -99 15
-127 10z"/>
<path d="M6901 2882 c-15 -11 -25 -98 -40 -382 -15 -274 -23 -833 -14 -1005
l8 -150 45 -3 c24 -2 59 -1 76 2 l31 6 7 253 c3 138 14 478 23 755 10 323 13
506 7 512 -14 14 -126 23 -143 12z"/>
<path d="M10455 2875 c-293 -64 -518 -292 -579 -587 -29 -140 -14 -353 34
-492 80 -233 274 -397 532 -450 132 -27 232 -21 346 21 42 16 43 18 37 49 -3
19 -13 50 -21 70 l-15 36 -47 -8 c-91 -17 -251 -10 -316 14 -146 53 -252 146
-315 274 -153 313 -38 713 247 857 63 32 185 61 257 61 67 0 182 -26 258 -59
l47 -20 30 59 c44 88 43 92 -47 128 -156 61 -310 78 -448 47z"/>
<path d="M13209 2883 c-30 -5 -26 26 -49 -393 -14 -239 -23 -1015 -13 -1085
l8 -60 77 -3 76 -3 6 83 c6 76 36 1240 36 1384 0 43 -4 63 -14 67 -23 9 -99
15 -127 10z"/>
<path d="M4146 2831 c-3 -24 -4 -58 0 -77 7 -38 -2 -35 179 -55 318 -34 519
-127 590 -274 48 -97 31 -230 -39 -311 -107 -125 -370 -172 -655 -118 -41 7
-77 11 -80 8 -3 -3 -7 -36 -9 -74 -5 -83 -10 -79 148 -106 132 -22 336 -15
453 15 267 69 413 256 394 504 -23 309 -329 497 -853 524 l-121 6 -7 -42z"/>
<path d="M7186 2862 c-3 -3 -6 -36 -6 -73 l0 -68 53 -5 c28 -3 86 -8 127 -11
389 -29 647 -195 627 -401 -8 -81 -28 -132 -69 -179 -86 -98 -210 -137 -433
-138 -132 0 -161 3 -245 26 -111 31 -115 29 -126 -60 -8 -66 -10 -63 106 -100
79 -25 98 -27 257 -28 l171 0 85 -150 c107 -188 202 -334 224 -342 19 -7 101
34 117 59 7 12 -20 67 -117 237 -70 122 -127 225 -127 229 0 4 35 23 78 44
168 79 252 215 252 408 0 138 -48 242 -155 338 -115 102 -283 168 -497 196
-126 16 -314 27 -322 18z"/>
<path d="M13476 2831 c-3 -24 -4 -58 0 -77 7 -38 -2 -35 179 -55 318 -34 519
-127 590 -274 48 -97 31 -230 -39 -311 -107 -125 -370 -172 -655 -118 -41 7
-77 11 -80 8 -3 -3 -7 -36 -9 -74 -5 -83 -10 -79 148 -106 132 -22 336 -15
453 15 267 69 413 256 394 504 -23 309 -329 497 -853 524 l-121 6 -7 -42z"/>
<path d="M11059 2631 c-22 -21 -39 -45 -39 -53 0 -8 25 -43 55 -78 69 -82 111
-160 129 -241 36 -160 28 -277 -25 -406 -35 -84 -116 -175 -211 -238 -32 -21
-58 -45 -58 -54 1 -24 34 -94 53 -109 14 -12 27 -9 89 22 159 77 264 197 324
372 25 70 28 94 28 214 1 241 -62 399 -225 558 -29 29 -59 52 -67 52 -8 0 -32
-17 -53 -39z"/>
<path d="M5850 2303 c0 -15 10 -67 22 -115 11 -49 19 -91 16 -94 -3 -3 -45 18
-94 45 -48 28 -98 51 -111 51 -27 0 -83 -71 -83 -106 0 -20 9 -26 68 -43 37
-11 88 -25 114 -32 26 -6 46 -15 43 -19 -3 -5 -36 -18 -73 -30 -170 -54 -176
-60 -126 -119 20 -24 34 -31 61 -31 41 0 61 10 134 67 30 23 58 43 61 43 3 0
-1 -30 -8 -67 -28 -137 -28 -130 -8 -141 11 -5 38 -13 61 -17 34 -5 45 -3 62
14 24 24 25 30 6 131 -7 41 -11 77 -9 79 2 3 39 -19 81 -47 52 -36 82 -51 95
-46 29 9 70 78 66 110 -3 27 -8 30 -97 51 -51 12 -96 24 -98 27 -3 3 35 17 83
31 49 15 96 30 104 34 25 13 23 39 -9 106 -46 98 -59 94 -199 -69 -18 -21 -35
-37 -37 -34 -3 2 3 49 12 103 l16 98 -27 24 c-20 17 -39 23 -77 23 -47 0 -49
-1 -49 -27z"/>
<path d="M8940 2303 c0 -15 10 -67 22 -115 11 -49 19 -91 16 -94 -3 -3 -45 18
-94 45 -48 28 -98 51 -111 51 -27 0 -83 -71 -83 -106 0 -20 9 -26 68 -43 37
-11 88 -25 114 -32 26 -6 46 -15 43 -19 -3 -5 -36 -18 -73 -30 -170 -54 -176
-60 -126 -119 20 -24 34 -31 61 -31 41 0 61 10 134 67 30 23 58 43 61 43 3 0
-1 -30 -8 -67 -28 -137 -28 -130 -8 -141 11 -5 38 -13 61 -17 34 -5 45 -3 62
14 24 24 25 30 6 131 -7 41 -11 77 -9 79 2 3 39 -19 81 -47 52 -36 82 -51 95
-46 29 9 70 78 66 110 -3 27 -8 30 -97 51 -51 12 -96 24 -98 27 -3 3 35 17 83
31 49 15 96 30 104 34 25 13 23 39 -9 106 -46 98 -59 94 -199 -69 -18 -21 -35
-37 -37 -34 -3 2 3 49 12 103 l16 98 -27 24 c-20 17 -39 23 -77 23 -47 0 -49
-1 -49 -27z"/>
<path d="M12140 2303 c0 -15 10 -67 22 -115 11 -49 19 -91 16 -94 -3 -3 -45
18 -94 45 -48 28 -98 51 -111 51 -27 0 -83 -71 -83 -106 0 -20 9 -26 68 -43
37 -11 88 -25 114 -32 26 -6 46 -15 43 -19 -3 -5 -36 -18 -73 -30 -170 -54
-176 -60 -126 -119 20 -24 34 -31 61 -31 41 0 61 10 134 67 30 23 58 43 61 43
3 0 -1 -30 -8 -67 -28 -137 -28 -130 -8 -141 11 -5 38 -13 61 -17 34 -5 45 -3
62 14 24 24 25 30 6 131 -7 41 -11 77 -9 79 2 3 39 -19 81 -47 52 -36 82 -51
95 -46 29 9 70 78 66 110 -3 27 -8 30 -97 51 -51 12 -96 24 -98 27 -3 3 35 17
83 31 49 15 96 30 104 34 25 13 23 39 -9 106 -46 98 -59 94 -199 -69 -18 -21
-35 -37 -37 -34 -3 2 3 49 12 103 l16 98 -27 24 c-20 17 -39 23 -77 23 -47 0
-49 -1 -49 -27z"/>
</g>
</svg>
